<svg width="20" height="29" viewBox="0 0 20 29" fill="none" xmlns="http://www.w3.org/2000/svg">
<path d="M1.11079 16.9028C0.17462 22.8631 5.40155 26.1177 8.13203 27C2.98312 20.9613 7.28688 15.9879 10.0824 14.256C9.78983 15.6284 10.1799 16.9028 11.1551 18.4713C11.9352 19.7261 11.8702 21.6083 11.7402 22.3926C12.5203 22.0789 13.1054 20.7587 13.3005 20.1379C14.8607 22.7259 13.1054 25.791 12.0327 27C22.0185 22.6867 19.119 15.1383 16.421 11.9033C15.9529 14.6481 14.6007 15.9225 13.9831 16.2166C16.421 5.28947 11.1551 2.65789 10.0824 2C9.67857 9.23684 2.28099 9.45251 1.11079 16.9028Z" fill="#E5E7EA" stroke="#17191D" stroke-width="1.5"/>
</svg>
