<svg width="34" height="27" viewBox="0 0 34 27" fill="none" xmlns="http://www.w3.org/2000/svg">
<mask id="path-1-inside-1_30_65061" fill="white">
<path fill-rule="evenodd" clip-rule="evenodd" d="M16.462 1.52685C17.6589 0.0848697 19.7982 -0.113785 21.2401 1.08314C23.4031 2.87854 23.7011 6.08743 21.9057 8.2504L21.2975 8.98315C21.056 9.1657 20.9 9.45529 20.9 9.78133C20.9 10.3336 21.3477 10.7813 21.9 10.7813L21.9236 10.7811H29.5001C31.9854 10.7811 34.0001 12.7958 34.0001 15.2811C34.0001 16.3031 33.6594 17.2455 33.0853 18.001L33.1 18.001L33.0351 18.0658C32.8154 18.3444 32.5634 18.5964 32.2848 18.8162L25.5713 25.5294C24.8212 26.2796 23.8038 26.701 22.7429 26.701H11.1C11.0025 26.701 10.906 26.6963 10.8108 26.6872H9.5448V26.2669C9.54468 26.2668 9.54456 26.2668 9.54443 26.2667V18.492C9.54456 18.4919 9.54468 18.4918 9.5448 18.4917V12.3846L9.54443 12.3843V9.86065L16.462 1.52685Z"/>
</mask>
<path fill-rule="evenodd" clip-rule="evenodd" d="M16.462 1.52685C17.6589 0.0848697 19.7982 -0.113785 21.2401 1.08314C23.4031 2.87854 23.7011 6.08743 21.9057 8.2504L21.2975 8.98315C21.056 9.1657 20.9 9.45529 20.9 9.78133C20.9 10.3336 21.3477 10.7813 21.9 10.7813L21.9236 10.7811H29.5001C31.9854 10.7811 34.0001 12.7958 34.0001 15.2811C34.0001 16.3031 33.6594 17.2455 33.0853 18.001L33.1 18.001L33.0351 18.0658C32.8154 18.3444 32.5634 18.5964 32.2848 18.8162L25.5713 25.5294C24.8212 26.2796 23.8038 26.701 22.7429 26.701H11.1C11.0025 26.701 10.906 26.6963 10.8108 26.6872H9.5448V26.2669C9.54468 26.2668 9.54456 26.2668 9.54443 26.2667V18.492C9.54456 18.4919 9.54468 18.4918 9.5448 18.4917V12.3846L9.54443 12.3843V9.86065L16.462 1.52685Z" fill="white"/>
<path d="M21.2401 1.08314L23.1562 -1.22523V-1.22523L21.2401 1.08314ZM16.462 1.52685L14.1536 -0.389235V-0.389234L16.462 1.52685ZM21.9057 8.2504L24.2141 10.1665V10.1665L21.9057 8.2504ZM21.2975 8.98315L23.1067 11.3762L23.3839 11.1666L23.6059 10.8992L21.2975 8.98315ZM21.9 10.7813V13.7813H21.9174L21.9347 13.7811L21.9 10.7813ZM21.9236 10.7811V7.78105H21.9063L21.8889 7.78125L21.9236 10.7811ZM33.0853 18.001L30.6966 16.186L27.0261 21.0168L33.0931 21.001L33.0853 18.001ZM33.1 18.001L35.2213 20.1223L40.3617 14.9821L33.0922 15.001L33.1 18.001ZM33.0351 18.0658L30.9139 15.9445L30.7891 16.0693L30.6798 16.2078L33.0351 18.0658ZM32.2848 18.8162L30.4268 16.4608L30.2883 16.5701L30.1635 16.6948L32.2848 18.8162ZM25.5713 25.5294L23.45 23.4081L23.45 23.4081L25.5713 25.5294ZM10.8108 26.6872L11.0965 23.7008L10.954 23.6872H10.8108V26.6872ZM9.5448 26.6872H6.5448V29.6872H9.5448V26.6872ZM9.5448 26.2669H12.5448V24.5864L11.1118 23.7087L9.5448 26.2669ZM9.54443 26.2667H6.54443V27.9471L7.97732 28.8248L9.54443 26.2667ZM9.54443 18.492L7.97732 15.9338L6.54443 16.8116V18.492H9.54443ZM9.5448 18.4917L11.1118 21.05L12.5448 20.1722V18.4917H9.5448ZM9.5448 12.3846H12.5448V10.9757L11.4606 10.0759L9.5448 12.3846ZM9.54443 12.3843H6.54443V13.7932L7.62864 14.6929L9.54443 12.3843ZM9.54443 9.86065L7.23606 7.94456L6.54443 8.77779V9.86065H9.54443ZM23.1562 -1.22523C20.4394 -3.48039 16.4087 -3.1061 14.1536 -0.389235L18.7703 3.44294C18.909 3.27584 19.157 3.25282 19.3241 3.39152L23.1562 -1.22523ZM24.2141 10.1665C27.0677 6.72863 26.5941 1.62838 23.1562 -1.22523L19.3241 3.39152C20.2121 4.12869 20.3345 5.44622 19.5973 6.33432L24.2141 10.1665ZM23.6059 10.8992L24.2141 10.1665L19.5973 6.33432L18.9891 7.06706L23.6059 10.8992ZM23.9 9.78133C23.9 10.4353 23.5829 11.0161 23.1067 11.3762L19.4882 6.59012C18.5291 7.31526 17.9 8.47532 17.9 9.78133H23.9ZM21.9 7.78133C23.0046 7.78133 23.9 8.67676 23.9 9.78133H17.9C17.9 11.9905 19.6909 13.7813 21.9 13.7813V7.78133ZM21.8889 7.78125L21.8653 7.78153L21.9347 13.7811L21.9584 13.7809L21.8889 7.78125ZM29.5001 7.78105H21.9236V13.7811H29.5001V7.78105ZM37.0001 15.2811C37.0001 11.1389 33.6422 7.78105 29.5001 7.78105V13.7811C30.3285 13.7811 31.0001 14.4526 31.0001 15.2811H37.0001ZM35.474 19.816C36.4308 18.5567 37.0001 16.9811 37.0001 15.2811H31.0001C31.0001 15.6251 30.8879 15.9343 30.6966 16.186L35.474 19.816ZM33.0922 15.001L33.0775 15.001L33.0931 21.001L33.1078 21.001L33.0922 15.001ZM35.1564 20.1872L35.2213 20.1223L30.9787 15.8796L30.9139 15.9445L35.1564 20.1872ZM34.1427 21.1716C34.6061 20.8061 35.025 20.3872 35.3905 19.9239L30.6798 16.2078C30.6057 16.3017 30.5207 16.3867 30.4268 16.4608L34.1427 21.1716ZM27.6926 27.6508L34.4061 20.9375L30.1635 16.6948L23.45 23.4081L27.6926 27.6508ZM22.7429 29.701C24.5994 29.701 26.3799 28.9635 27.6926 27.6508L23.45 23.4081C23.2625 23.5956 23.0082 23.701 22.7429 23.701V29.701ZM11.1 29.701H22.7429V23.701H11.1V29.701ZM10.5251 29.6736C10.7151 29.6918 10.9069 29.701 11.1 29.701V23.701C11.098 23.701 11.0968 23.7009 11.0965 23.7008L10.5251 29.6736ZM9.5448 29.6872H10.8108V23.6872H9.5448V29.6872ZM6.5448 26.2669V26.6872H12.5448V26.2669H6.5448ZM7.97732 28.8248C7.98213 28.8278 7.98604 28.8302 7.98844 28.8316C7.98966 28.8324 7.99065 28.833 7.99126 28.8333C7.99157 28.8335 7.99183 28.8337 7.99198 28.8338C7.99206 28.8338 7.99213 28.8338 7.99217 28.8339C7.99221 28.8339 7.99224 28.8339 7.99224 28.8339C7.99259 28.8341 7.99078 28.833 7.98867 28.8318C7.98636 28.8303 7.98253 28.828 7.97779 28.8251L11.1118 23.7087C11.107 23.7057 11.1031 23.7034 11.1007 23.7019C11.0995 23.7012 11.0985 23.7006 11.0979 23.7002C11.0976 23.7001 11.0974 23.6999 11.0972 23.6998C11.0972 23.6998 11.0971 23.6997 11.0971 23.6997C11.097 23.6997 11.097 23.6997 11.097 23.6997C11.097 23.6997 11.097 23.6997 11.097 23.6997C11.097 23.6997 11.097 23.6997 11.097 23.6997C11.0967 23.6995 11.0985 23.7006 11.1006 23.7019C11.1029 23.7033 11.1068 23.7056 11.1115 23.7085L7.97732 28.8248ZM6.54443 18.492V26.2667H12.5444V18.492H6.54443ZM7.97779 15.9335C7.98253 15.9306 7.98636 15.9283 7.98868 15.9269C7.99078 15.9256 7.99259 15.9245 7.99224 15.9247C7.99224 15.9247 7.99221 15.9247 7.99217 15.9248C7.99213 15.9248 7.99206 15.9248 7.99198 15.9249C7.99183 15.925 7.99157 15.9251 7.99126 15.9253C7.99065 15.9257 7.98966 15.9263 7.98844 15.927C7.98604 15.9285 7.98213 15.9309 7.97732 15.9338L11.1115 21.0501C11.1068 21.053 11.1029 21.0554 11.1006 21.0568C11.0985 21.0581 11.0967 21.0592 11.097 21.059C11.097 21.059 11.097 21.059 11.097 21.059C11.097 21.059 11.097 21.059 11.097 21.059C11.097 21.059 11.097 21.0589 11.0971 21.0589C11.0971 21.0589 11.0972 21.0589 11.0972 21.0588C11.0974 21.0587 11.0976 21.0586 11.0979 21.0584C11.0985 21.058 11.0995 21.0574 11.1007 21.0567C11.1031 21.0553 11.107 21.0529 11.1118 21.05L7.97779 15.9335ZM6.5448 12.3846V18.4917H12.5448V12.3846H6.5448ZM7.62864 14.6929L7.629 14.6932L11.4606 10.0759L11.4602 10.0756L7.62864 14.6929ZM6.54443 9.86065V12.3843H12.5444V9.86065H6.54443ZM14.1536 -0.389234L7.23606 7.94456L11.8528 11.7767L18.7703 3.44294L14.1536 -0.389234Z" fill="#7C818A" mask="url(#path-1-inside-1_30_65061)"/>
<path d="M1.5 13.8945C1.5 12.5138 2.61929 11.3945 4 11.3945H6.5V25.1886H4C2.61929 25.1886 1.5 24.0693 1.5 22.6886V13.8945Z" fill="white" stroke="#7C818A" stroke-width="3"/>
</svg>
