<svg width="100%" height="100%" viewBox="0 0 52 40" fill="none" xmlns="http://www.w3.org/2000/svg">
<path fill-rule="evenodd" clip-rule="evenodd" d="M47.0927 19.2322C47.0936 19.2289 47.0939 19.2273 47.0937 19.2274C47.0932 19.2276 47.0891 19.2398 47.0828 19.2629C47.0879 19.2478 47.0911 19.2377 47.0927 19.2322ZM45.7698 18.3424C46.2 19.0015 46.523 19.5613 46.7488 20C46.523 20.4387 46.2 20.9985 45.7698 21.6576C44.6486 23.3753 42.9728 25.5018 40.8797 27.5593C36.5536 31.8118 31.2539 35 26 35C20.7461 35 15.4464 31.8118 11.1203 27.5593C9.0272 25.5018 7.35137 23.3753 6.23018 21.6576C5.79997 20.9985 5.47697 20.4387 5.25123 20C5.47697 19.5613 5.79997 19.0015 6.23018 18.3424C7.35137 16.6247 9.0272 14.4982 11.1203 12.4407C15.4464 8.18824 20.7461 5 26 5C31.2539 5 36.5536 8.18824 40.8797 12.4407C42.9728 14.4982 44.6486 16.6247 45.7698 18.3424ZM4.90627 19.2274C4.90677 19.2276 4.91093 19.2398 4.91724 19.2629C4.90892 19.2387 4.90576 19.2271 4.90627 19.2274ZM4.90627 20.7726C4.90577 20.7729 4.90892 20.7613 4.91724 20.7371C4.91093 20.7602 4.90677 20.7724 4.90627 20.7726ZM47.0828 20.7371C47.0911 20.7613 47.0942 20.7729 47.0937 20.7726C47.0932 20.7724 47.0891 20.7603 47.0828 20.7371ZM52 20C52 23 40.3594 40 26 40C11.6406 40 0 23 0 20C0 17 11.6406 0 26 0C40.3594 0 52 17 52 20ZM31 20C31 22.7614 28.7614 25 26 25C23.2386 25 21 22.7614 21 20C21 17.2386 23.2386 15 26 15C28.7614 15 31 17.2386 31 20ZM36 20C36 25.5228 31.5228 30 26 30C20.4772 30 16 25.5228 16 20C16 14.4772 20.4772 10 26 10C31.5228 10 36 14.4772 36 20Z" fill="currentColor"/>
</svg>
