<svg width="100%" height="100%" viewBox="0 0 36 23" fill="none" xmlns="http://www.w3.org/2000/svg">
<path fill-rule="evenodd" clip-rule="evenodd" d="M9 0C4.02944 0 0 4.02944 0 9C0 13.9706 4.02944 18 9 18H22.1963V22.3924L27.7804 17.9666C32.3856 17.5711 36 13.7076 36 9C36 4.02944 31.9706 0 27 0H9Z" fill="#FF4E30"/>
<path d="M10.5703 6.79004C10.5475 6.5752 10.4727 6.38965 10.3457 6.2334C10.222 6.07715 10.0544 5.95996 9.84277 5.88184C9.63118 5.80371 9.3903 5.76465 9.12012 5.76465C8.83691 5.76465 8.58789 5.80859 8.37305 5.89648C8.1582 5.98438 7.99219 6.10807 7.875 6.26758C7.75781 6.42383 7.69922 6.60286 7.69922 6.80469C7.69922 7.10417 7.82129 7.33529 8.06543 7.49805C8.31283 7.65755 8.62044 7.78125 8.98828 7.86914L9.66699 8.0498C10.2562 8.19629 10.7428 8.4209 11.127 8.72363C11.5143 9.02637 11.708 9.46745 11.708 10.0469C11.708 10.4473 11.6038 10.8053 11.3955 11.1211C11.1904 11.4336 10.8893 11.6777 10.4922 11.8535C10.0983 12.0293 9.62956 12.1172 9.08594 12.1172C8.55859 12.1172 8.10124 12.0326 7.71387 11.8633C7.32975 11.694 7.02702 11.4548 6.80566 11.1455C6.58757 10.8363 6.46549 10.4684 6.43945 10.042H7.51367C7.5332 10.2861 7.61458 10.4945 7.75781 10.667C7.90104 10.8363 8.08659 10.9632 8.31445 11.0479C8.54557 11.1325 8.80111 11.1732 9.08105 11.1699C9.38053 11.1699 9.64909 11.1227 9.88672 11.0283C10.1243 10.9339 10.3099 10.8005 10.4434 10.6279C10.5768 10.4554 10.6436 10.2552 10.6436 10.0273C10.6436 9.83203 10.5882 9.66602 10.4775 9.5293C10.3669 9.39258 10.2155 9.2819 10.0234 9.19727C9.83138 9.11263 9.59375 9.03288 9.31055 8.95801L8.4707 8.73828C7.87826 8.57552 7.42253 8.34277 7.10352 8.04004C6.78776 7.73405 6.63151 7.3418 6.63477 6.86328C6.63477 6.46289 6.74219 6.10807 6.95703 5.79883C7.17513 5.48958 7.47461 5.25195 7.85547 5.08594C8.23958 4.91667 8.66927 4.83203 9.14453 4.83203C9.61654 4.83203 10.0381 4.91667 10.4092 5.08594C10.7835 5.25195 11.0749 5.4847 11.2832 5.78418C11.4948 6.0804 11.6038 6.41569 11.6104 6.79004H10.5703ZM12.0793 12L14.6184 4.92969H15.8635L18.4074 12H17.26L15.2678 6.22363H15.2092L13.2121 12H12.0793ZM17.0744 9.23145V10.1299H13.4025V9.23145H17.0744ZM19.1156 4.92969H20.1898V11.0771H23.3881V12H19.1156V4.92969ZM24.2867 4.92969H28.7252V5.85254H25.3609V8.00098H28.4908V8.91895H25.3609V11.0771H28.7594V12H24.2867V4.92969Z" fill="white"/>
</svg>
