<svg width="100%" height="100%" viewBox="0 0 48 40" fill="none" xmlns="http://www.w3.org/2000/svg">
<path fill-rule="evenodd" clip-rule="evenodd" d="M24.7612 37.7897C23.0036 39.9071 19.8622 40.1989 17.7447 38.4412C14.7803 35.9806 14.3719 31.5826 16.8325 28.6182L17.941 27.2828C18.3264 26.9204 18.5671 26.4058 18.5671 25.8349C18.5671 24.7375 17.6774 23.8478 16.58 23.8478C16.4941 23.8478 16.4095 23.8533 16.3264 23.8638L6.66647 23.8638C2.98469 23.8638 2.45239e-05 20.8792 2.48458e-05 17.1974C2.49718e-05 15.7569 0.456938 14.423 1.23374 13.3329L1.19985 13.3329L9.03752 1.7574C9.78166 0.65838 11.0225 3.98487e-05 12.3497 3.99647e-05L30.8992 4.15863e-05C30.9247 4.15886e-05 30.9501 0.000354396 30.9754 0.000980009L35.1922 0.000980377L35.1922 21.4362L35.1924 21.4363L35.1924 25.2229L24.7612 37.7897Z" fill="#9CA0A9"/>
<path d="M47.9984 19.1711C47.9984 22.4848 45.3121 25.1711 41.9984 25.1711L37.4005 25.1711L37.4005 0.00102523L41.9984 0.00102563C45.3121 0.00102592 47.9984 2.68732 47.9984 6.00103L47.9984 19.1711Z" fill="#9CA0A9"/>
</svg>
